<?xml version="1.0" encoding="UTF-8" standalone="no"?>
<!-- Created with Inkscape (http://www.inkscape.org/) -->

<svg
   width="120"
   height="120"
   version="1.1"
   viewBox="0 0 120 120"
   id="svg5659"
   sodipodi:docname="hinterlands-logo.svg"
   inkscape:version="1.1.2 (0a00cf5339, 2022-02-04)"
   xmlns:inkscape="http://www.inkscape.org/namespaces/inkscape"
   xmlns:sodipodi="http://sodipodi.sourceforge.net/DTD/sodipodi-0.dtd"
   xmlns="http://www.w3.org/2000/svg"
   xmlns:svg="http://www.w3.org/2000/svg">
  <defs
     id="defs5663" />
  <sodipodi:namedview
     id="namedview5661"
     pagecolor="#ffffff"
     bordercolor="#000000"
     borderopacity="0.25"
     inkscape:pageshadow="2"
     inkscape:pageopacity="0.0"
     inkscape:pagecheckerboard="0"
     showgrid="false"
     inkscape:zoom="2.9958333"
     inkscape:cx="-0.33379694"
     inkscape:cy="99.30459"
     inkscape:window-width="1920"
     inkscape:window-height="1016"
     inkscape:window-x="0"
     inkscape:window-y="0"
     inkscape:window-maximized="1"
     inkscape:current-layer="g5657" />
  <g
     transform="matrix(1.2073 0 0 1.2073 -12.439 -9.8678)"
     stroke-width="0"
     id="g5657">
    <circle
       cx="60"
       cy="57.87"
       r="49.697"
       fill="#ff6584"
       id="circle5645"
       style="fill:#047857;fill-opacity:1" />
    <g
       transform="matrix(.875 0 0 .875 7.5 6.612)"
       fill="#fff"
       id="g5655">
      <path
         d="m49.519 64.166-2.0152 49.8a56.796 56.796 0 0 0 10.808 1.3866l0.29212-51.187zm11.877 0 0.29212 51.187a56.796 56.796 0 0 0 10.808-1.3866l-2.0152-49.8z"
         id="path5647" />
      <g
         transform="matrix(2.0537 0 0 2.0537 -63.22 -7.8992)"
         id="g5653">
        <circle
           cx="60"
           cy="14.4"
           r="6"
           id="circle5649" />
        <path
           d="m43.867 27.151c0.17335 0.38513 2.1253 4.5453 2.8066 6h26.65c0.6813-1.4547 2.6352-5.6149 2.8086-6h-32.266z"
           id="path5651" />
      </g>
    </g>
  </g>
</svg>
