<?xml version="1.0" encoding="UTF-8" standalone="no"?>
<svg
   data-name="Layer 1"
   width="853.78"
   height="726"
   viewBox="0 0 853.78 726"
   version="1.1"
   id="svg7049"
   sodipodi:docname="sea-foam-empty-state.svg"
   inkscape:version="1.1.2 (0a00cf5339, 2022-02-04)"
   xmlns:inkscape="http://www.inkscape.org/namespaces/inkscape"
   xmlns:sodipodi="http://sodipodi.sourceforge.net/DTD/sodipodi-0.dtd"
   xmlns="http://www.w3.org/2000/svg"
   xmlns:svg="http://www.w3.org/2000/svg"
   xmlns:rdf="http://www.w3.org/1999/02/22-rdf-syntax-ns#"
   xmlns:cc="http://creativecommons.org/ns#"
   xmlns:dc="http://purl.org/dc/elements/1.1/">
  <defs
     id="defs7053" />
  <sodipodi:namedview
     id="namedview7051"
     pagecolor="#ffffff"
     bordercolor="#000000"
     borderopacity="0.25"
     inkscape:pageshadow="2"
     inkscape:pageopacity="0.0"
     inkscape:pagecheckerboard="0"
     showgrid="false"
     inkscape:zoom="0.44632545"
     inkscape:cx="144.51338"
     inkscape:cy="527.64188"
     inkscape:window-width="1503"
     inkscape:window-height="938"
     inkscape:window-x="0"
     inkscape:window-y="0"
     inkscape:window-maximized="1"
     inkscape:current-layer="svg7049" />
  <title
     id="title6941">treasure</title>
  <ellipse
     cx="284.98"
     cy="672"
     rx="277"
     ry="54"
     fill="#3f3d56"
     id="ellipse6943" />
  <path
     d="M236.36,746S185,732.19,175.31,733.21s14.68-47.36,30.91-41.46,37.87,21.42,50.24-.5,19.31-33.72,34.38-32.54,35.94-9.43,51,0,25.64,21.06,46.44,20.56S428.8,631.58,445,650.46s35.63,36.15,50.86,29.87,32.61,3.16,46.52,13.78,38.26,5.9,47.53-2.36,16.24-14.16,35.94-13,82.31,15.34,105.5,33-30.14,40.12-55.65,40.12-30.14,7.08-52.17,17.7-58-5.9-83.47,11.8-58-9.44-102,0-34.78,22.41-60.29,13-16.23-13-53.33-15.34-77.67,5.9-81.15-9.44-26.64-18.88-40.56-23.6S236.36,746,236.36,746Z"
     transform="translate(-173.11 -87)"
     fill="#3f3d56"
     id="path6945" />
  <path
     d="M631.08,756.56s-34.61-9.16-41.13-8.49,9.89-31.34,20.82-27.44,25.52,14.18,33.85-.33,13-22.32,23.17-21.54,24.21-6.25,34.36,0,17.27,13.94,31.29,13.61,27.29-31.57,38.22-19.08,24,23.94,34.26,19.78,22,2.09,31.35,9.12,25.77,3.91,32-1.56,10.94-9.37,24.22-8.59,55.45,10.15,71.07,21.87-20.31,26.55-37.49,26.55-20.31,4.69-35.15,11.72-39.05-3.91-56.23,7.81-39.05-6.25-68.73,0-23.43,14.84-40.62,8.59-10.93-8.59-35.92-10.15-52.33,3.9-54.68-6.25-18-12.5-27.33-15.62S631.08,756.56,631.08,756.56Z"
     transform="translate(-173.11 -87)"
     fill="#3f3d56"
     id="path6951" />
  <polygon
     points="744.61 561.58 731.21 602.65 730.63 604.44 708.2 673.2 669.8 699.15 483.33 620.74 501 549.28 501.94 545.52 511.4 507.27 511.42 507.18 568.82 500 744.61 561.58"
     fill="#f8ce6d"
     id="polygon6953" />
  <polygon
     points="744.61 561.58 708.2 673.2 669.8 699.15 705.05 577.34 511.4 507.27 511.42 507.18 568.82 500 744.61 561.58"
     opacity="0.1"
     id="polygon6955" />
  <polygon
     points="553.24 514.93 550.15 513.05 581.13 509.8 713.85 556.72 710.11 558.68 579.18 512.51 553.24 514.93"
     opacity="0.1"
     id="polygon6957" />
  <polyline
     points="731.21 602.65 692.45 620.88 501.94 545.52 501 549.28 691.68 623.56 730.63 604.44"
     opacity="0.1"
     id="polyline6959" />
  <ellipse
     cx="691.21"
     cy="619.15"
     rx="6.67"
     ry="7.2"
     transform="translate(-278.2 1008.63) rotate(-72.75)"
     fill="#3f3d56"
     id="ellipse6961" />
  <ellipse
     cx="859.13"
     cy="684.17"
     rx="6.67"
     ry="7.2"
     transform="translate(-222.18 1214.73) rotate(-72.75)"
     fill="#3f3d56"
     id="ellipse6963" />
  <ellipse
     cx="832.58"
     cy="764.93"
     rx="6.67"
     ry="7.2"
     transform="translate(-317.97 1246.17) rotate(-72.75)"
     fill="#3f3d56"
     id="ellipse6965" />
  <ellipse
     cx="670.66"
     cy="697.17"
     rx="6.67"
     ry="7.2"
     transform="translate(-367.16 1043.88) rotate(-72.75)"
     fill="#3f3d56"
     id="ellipse6967" />
  <path
     d="M707.22,598.38c-.4,1.3-3.61,0-7.69-1.28s-7.26-2.68-6.86-4,4.24-2,8.32-.73S707.63,597.08,707.22,598.38Z"
     transform="translate(-173.11 -87)"
     fill="#3f3d56"
     id="path6969" />
  <ellipse
     cx="721.08"
     cy="591.65"
     rx="2.46"
     ry="7.02"
     transform="translate(-230.92 1017.81) rotate(-72.75)"
     fill="#3f3d56"
     id="ellipse6971" />
  <path
     d="M793.58,630c-.4,1.3-4.41.1-8.3-1.11s-6.92-2.56-6.52-3.86,4.09-2,8-.83S794,628.68,793.58,630Z"
     transform="translate(-173.11 -87)"
     fill="#3f3d56"
     id="path6973" />
  <path
     d="M876.54,659.79c-.45,1.46-4.71.19-8.84-1.09s-7.34-2.75-6.89-4.21,4.4-2.35,8.53-1.07S877,658.33,876.54,659.79Z"
     transform="translate(-173.11 -87)"
     fill="#3f3d56"
     id="path6975" />
  <path
     d="M900.8,656.29c-.46,1.46-4.71.19-8.84-1.09s-7.35-2.75-6.89-4.21,4.4-2.35,8.53-1.07S901.25,654.83,900.8,656.29Z"
     transform="translate(-173.11 -87)"
     fill="#3f3d56"
     id="path6977" />
  <path
     d="M912.76,649.16c-.46,1.46-4,.42-7.38-.64s-6-2.34-5.59-3.8,3.82-2.54,7.23-1.48S913.21,647.7,912.76,649.16Z"
     transform="translate(-173.11 -87)"
     fill="#3f3d56"
     id="path6979" />
  <path
     d="M832.65,619.94c-.36,1.16-4,.09-7.46-1s-6.23-2.31-5.86-3.47,3.67-1.83,7.17-.75S833,618.77,832.65,619.94Z"
     transform="translate(-173.11 -87)"
     fill="#3f3d56"
     id="path6981" />
  <ellipse
     cx="749.03"
     cy="590.77"
     rx="2.46"
     ry="6.06"
     transform="translate(-210.42 1043.88) rotate(-72.75)"
     fill="#3f3d56"
     id="ellipse6983" />
  <path
     d="M791,669.25a6.32,6.32,0,0,0-2.9-7.36,6.43,6.43,0,0,0,1.31-2.33,6.32,6.32,0,0,0-7.24-8.08,6.32,6.32,0,0,0-11.34-5.25,6.32,6.32,0,0,0-9.74,3.25c0,.14-.07.27-.1.4l-.22.11a6.32,6.32,0,1,0-6.11,10.73,5.65,5.65,0,0,0,1,.22l.08,2.32L786,675.63l-.2-2A6.34,6.34,0,0,0,791,669.25Z"
     transform="translate(-173.11 -87)"
     opacity="0.1"
     id="path6985" />
  <path
     d="M783.93,689.11a6.33,6.33,0,0,1-7.2,3.29,6.18,6.18,0,0,1-.67,2.58,6.32,6.32,0,0,1-8.49,2.81,6.43,6.43,0,0,1-2.33-2,6.32,6.32,0,0,1-11.8-4.09,6.42,6.42,0,0,1-2-.62,6.32,6.32,0,0,1-2.81-8.48l.2-.37-.08-.23a6.25,6.25,0,0,1-2.63-.67A6.32,6.32,0,0,1,751.86,670a6.59,6.59,0,0,1,.85.51l1.66-1.61,30.44,12.17-1.53,1.3A6.32,6.32,0,0,1,783.93,689.11Z"
     transform="translate(-173.11 -87)"
     opacity="0.1"
     id="path6987" />
  <path
     d="M765.35,655.64,758,679.46a7.16,7.16,0,0,0,4.33,8.83h0a7.15,7.15,0,0,0,9.32-4.58L779,659.88a7.14,7.14,0,0,0-5.08-9h0A7.14,7.14,0,0,0,765.35,655.64Z"
     transform="translate(-173.11 -87)"
     opacity="0.1"
     id="path6989" />
  <path
     d="M765.67,657.09,759,678.45a6.4,6.4,0,0,0,3.89,7.91h0a6.41,6.41,0,0,0,8.35-4.11l6.63-21.37a6.42,6.42,0,0,0-4.56-8.12h0A6.42,6.42,0,0,0,765.67,657.09Z"
     transform="translate(-173.11 -87)"
     fill="#3f3d56"
     id="path6991" />
  <path
     d="M678.72,767.49s-34.61-9.16-41.13-8.48,9.89-31.35,20.82-27.44,25.52,14.17,33.85-.34,13-22.31,23.17-21.53,24.21-6.25,34.36,0,17.27,13.93,31.29,13.6,27.29-31.57,38.23-19.07,24,23.93,34.26,19.78,22,2.09,31.34,9.12,25.78,3.9,32-1.56,10.93-9.38,24.21-8.6,55.45,10.16,71.07,21.87-20.3,26.56-37.49,26.56-20.3,4.68-35.14,11.71-39.06-3.9-56.24,7.81-39.05-6.24-68.73,0-23.43,14.84-40.61,8.6-10.94-8.6-35.93-10.16-52.33,3.91-54.67-6.25-17.95-12.49-27.33-15.62S678.72,767.49,678.72,767.49Z"
     transform="translate(-173.11 -87)"
     fill="#3f3d56"
     id="path6993" />
  <g
     id="g8191"
     transform="rotate(-1.708386,-646.7575,-13308.064)">
    <g
       id="g8391"
       transform="rotate(-178.76994,-5.2067244,346.25815)">
      <path
         d="m 284.74,206.07 c 0,0 -7.63,6.2 -16.64,-10.06 -9.01,-16.26 -52.52,-55.34 -52.52,-55.34 0,0 -5.63,-5.15 15.76,-13.73 21.39,-8.58 50.6,-39.94 50.6,-39.94 0,0 48.74,43.33 53.51,64.79 4.77,21.46 -5.67,25.1 -23.59,36.5 -17.92,11.4 -27.12,17.78 -27.12,17.78 z"
         transform="translate(-173.11,-87)"
         fill="#3f3d56"
         id="path7041"
         style="fill:#2dd4bf;fill-opacity:1" />
      <path
         d="m 424.43,413.59 -123,-221.67 10.44,-3.63 L 432.79,409 a 4.79,4.79 0 0 1 -2,6.54 v 0 a 4.77,4.77 0 0 1 -6.36,-1.95 z"
         transform="translate(-173.11,-87)"
         fill="#656380"
         id="path7043"
         style="fill:#14b8a6;fill-opacity:1" />
    </g>
  </g>
  <metadata
     id="metadata7055">
    <rdf:RDF>
      <cc:Work
         rdf:about="">
        <dc:title>treasure</dc:title>
      </cc:Work>
    </rdf:RDF>
  </metadata>
  <path
     d="m 176.70602,686.66594 c 0,0 -34.61,-9.16 -41.13,-8.48 -6.52,0.68 9.89,-31.35 20.82,-27.44 10.93,3.91 25.52,14.17 33.85,-0.34 8.33,-14.51 13,-22.31 23.17,-21.53 10.17,0.78 24.21,-6.25 34.36,0 10.15,6.25 17.27,13.93 31.29,13.6 14.02,-0.33 27.29,-31.57 38.23,-19.07 10.94,12.5 24,23.93 34.26,19.78 10.26,-4.15 22,2.09 31.34,9.12 9.34,7.03 25.78,3.9 32,-1.56 6.22,-5.46 10.93,-9.38 24.21,-8.6 13.28,0.78 55.45,10.16 71.07,21.87 15.62,11.71 -20.3,26.56 -37.49,26.56 -17.19,0 -20.3,4.68 -35.14,11.71 -14.84,7.03 -39.06,-3.9 -56.24,7.81 -17.18,11.71 -39.05,-6.24 -68.73,0 -29.68,6.24 -23.43,14.84 -40.61,8.6 -17.18,-6.24 -10.94,-8.6 -35.93,-10.16 -24.99,-1.56 -52.33,3.91 -54.67,-6.25 -2.34,-10.16 -17.95,-12.49 -27.33,-15.62 -9.38,-3.13 22.67,0 22.67,0 z"
     fill="#3f3d56"
     id="path6993-6" />
</svg>
